<svg xmlns="http://www.w3.org/2000/svg" viewBox="0 0 1000 750" role="img" aria-label="Kíméletesebb légkondicionálás izometrikus illusztráció"><defs><linearGradient id="mint" x1="0" y1="0" x2="1" y2="1"><stop stop-color="#BDE8DF"/><stop offset="1" stop-color="#62B8B0"/></linearGradient><linearGradient id="blue" x1="0" y1="0" x2="1" y2="1"><stop stop-color="#80D7E8"/><stop offset="1" stop-color="#2D8FB0"/></linearGradient></defs><style>.outline{stroke:#35565D;stroke-width:7;stroke-linejoin:round;stroke-linecap:round}.thin{stroke:#52747A;stroke-width:5;stroke-linejoin:round;stroke-linecap:round}.white{fill:#fff}.wall{fill:#F8F5EE}.floor{fill:#F1EDE5}.mint{fill:url(#mint)}.blue{fill:url(#blue)}</style><rect width="100%" height="100%" fill="#FFFDF9"/><g><path d="M120 575l365-210 395 225-370 213z" class="floor outline"/><path d="M120 575V220l365-205v350z" class="wall outline"/><path d="M485 365V15l395 225v350z" fill="#F5F0E8" class="outline"/></g><g><rect x="610" y="145" width="220" height="82" rx="24" class="white outline"/><path d="M645 192h150" class="thin"/><circle cx="795" cy="172" r="10" class="blue"/><path d="M655 248q80 60 150 0M660 285q75 62 140 5" fill="none" stroke="#72CFE4" stroke-width="12" stroke-linecap="round" opacity=".75"/><path d="M265 485l260-150 220 126-260 151z" class="mint outline"/><path d="M295 504v98l190 110v-100z" fill="#78BEB7" class="outline"/><path d="M485 612v100l225-130v-101z" fill="#55A39F" class="outline"/><rect x="220" y="250" width="165" height="145" rx="16" fill="#DDF3F0" class="outline"/><path d="M245 275h115v95H245z" fill="#A5D9D4"/><circle cx="780" cy="480" r="65" class="white outline"/><path d="M780 480v-37M780 480l30 20" class="thin" fill="none"/><text x="752" y="565" font-family="Arial,sans-serif" font-size="34" font-weight="700" fill="#35565D">25°</text></g><g transform="translate(430 540) scale(.7)"><circle cx="0" cy="-140" r="34" fill="#F6B588"/><path d="M-34-151q9-43 54-26 21 9 18 36-19-8-37-1-18 7-35-9z" fill="#6B3B24"/><path d="M-36-105q36-22 72 2l15 127-88 2z" fill="#55C8C1" class="outline"/><path d="M-24 20l-10 124h34L10 27zM20 21l20 123h34L54 11z" fill="#35565D"/><path d="M-25-70l-48 65M27-70l53 42" fill="none" stroke="#F6B588" stroke-width="22" stroke-linecap="round"/></g></svg>